# xmcd CD database file
#
# Track frame offsets:
#	150
#	22449
#	55197
#	77301
#	104858
#	126471
#	158407
#	189058
#	205756
#	227081
#
# Disc length: 3319 seconds
#
# Revision: 2
# Processed by: cddbd v1.5.2PL0 Copyright (c) Steve Scherf et al.
# Submitted via: CDex 1.70beta3
#
DISCID=7e0cf50a
DTITLE=山中　千尋 - Molto Cantabile
DYEAR=2013
DGENRE=Jazz
TTITLE0=前奏曲作品４０の１（８つの演奏会用エチュードから）-カプースチン
TTITLE1=トルコ行進曲-モーツァルト
TTITLE2=Hanon Twist
TTITLE3=奈ポレオン応援歌
TTITLE4=Cantabile
TTITLE5=愛の夢　第３番-リスト
TTITLE6=夢のあとに-フォーレ
TTITLE7=熊蜂の飛行-リムスキ-=コルサコフ
TTITLE8=エリーゼのために-ベートーヴェン
TTITLE9=即興曲第１５番《エディット・ピアフを讃えて》-プーランク
EXTD=YEAR: 2013
EXTT0=
EXTT1=
EXTT2=
EXTT3=
EXTT4=
EXTT5=
EXTT6=
EXTT7=
EXTT8=
EXTT9=
PLAYORDER=
